<svg id="visual" viewBox="0 0 600 900" width="600" height="900" xmlns="http://www.w3.org/2000/svg" xmlns:xlink="http://www.w3.org/1999/xlink" version="1.1"><rect x="0" y="0" width="600" height="900" fill="#F36A3E"></rect><path d="M0 147L14.3 154.3C28.7 161.7 57.3 176.3 85.8 176.7C114.3 177 142.7 163 171.2 160.7C199.7 158.3 228.3 167.7 257 168.2C285.7 168.7 314.3 160.3 343 164.3C371.7 168.3 400.3 184.7 428.8 185.8C457.3 187 485.7 173 514.2 175.8C542.7 178.7 571.3 198.3 585.7 208.2L600 218L600 901L585.7 901C571.3 901 542.7 901 514.2 901C485.7 901 457.3 901 428.8 901C400.3 901 371.7 901 343 901C314.3 901 285.7 901 257 901C228.3 901 199.7 901 171.2 901C142.7 901 114.3 901 85.8 901C57.3 901 28.7 901 14.3 901L0 901Z" fill="#f36a3e"></path><path d="M0 209L14.3 211.5C28.7 214 57.3 219 85.8 238C114.3 257 142.7 290 171.2 285.7C199.7 281.3 228.3 239.7 257 218.5C285.7 197.3 314.3 196.7 343 210.8C371.7 225 400.3 254 428.8 252.7C457.3 251.3 485.7 219.7 514.2 198.8C542.7 178 571.3 168 585.7 163L600 158L600 901L585.7 901C571.3 901 542.7 901 514.2 901C485.7 901 457.3 901 428.8 901C400.3 901 371.7 901 343 901C314.3 901 285.7 901 257 901C228.3 901 199.7 901 171.2 901C142.7 901 114.3 901 85.8 901C57.3 901 28.7 901 14.3 901L0 901Z" fill="#fa574b"></path><path d="M0 252L14.3 277.3C28.7 302.7 57.3 353.3 85.8 376.5C114.3 399.7 142.7 395.3 171.2 394C199.7 392.7 228.3 394.3 257 372.5C285.7 350.7 314.3 305.3 343 278.8C371.7 252.3 400.3 244.7 428.8 265.8C457.3 287 485.7 337 514.2 342.7C542.7 348.3 571.3 309.7 585.7 290.3L600 271L600 901L585.7 901C571.3 901 542.7 901 514.2 901C485.7 901 457.3 901 428.8 901C400.3 901 371.7 901 343 901C314.3 901 285.7 901 257 901C228.3 901 199.7 901 171.2 901C142.7 901 114.3 901 85.8 901C57.3 901 28.7 901 14.3 901L0 901Z" fill="#fe425b"></path><path d="M0 333L14.3 342.2C28.7 351.3 57.3 369.7 85.8 377C114.3 384.3 142.7 380.7 171.2 375.8C199.7 371 228.3 365 257 382C285.7 399 314.3 439 343 456.3C371.7 473.7 400.3 468.3 428.8 445.2C457.3 422 485.7 381 514.2 358C542.7 335 571.3 330 585.7 327.5L600 325L600 901L585.7 901C571.3 901 542.7 901 514.2 901C485.7 901 457.3 901 428.8 901C400.3 901 371.7 901 343 901C314.3 901 285.7 901 257 901C228.3 901 199.7 901 171.2 901C142.7 901 114.3 901 85.8 901C57.3 901 28.7 901 14.3 901L0 901Z" fill="#ff286d"></path><path d="M0 504L14.3 504.3C28.7 504.7 57.3 505.3 85.8 511.8C114.3 518.3 142.7 530.7 171.2 539.3C199.7 548 228.3 553 257 547C285.7 541 314.3 524 343 499.8C371.7 475.7 400.3 444.3 428.8 447.5C457.3 450.7 485.7 488.3 514.2 487.8C542.7 487.3 571.3 448.7 585.7 429.3L600 410L600 901L585.7 901C571.3 901 542.7 901 514.2 901C485.7 901 457.3 901 428.8 901C400.3 901 371.7 901 343 901C314.3 901 285.7 901 257 901C228.3 901 199.7 901 171.2 901C142.7 901 114.3 901 85.8 901C57.3 901 28.7 901 14.3 901L0 901Z" fill="#fb0082"></path><path d="M0 616L14.3 614.7C28.7 613.3 57.3 610.7 85.8 590.8C114.3 571 142.7 534 171.2 527.2C199.7 520.3 228.3 543.7 257 563.7C285.7 583.7 314.3 600.3 343 591.8C371.7 583.3 400.3 549.7 428.8 529.7C457.3 509.7 485.7 503.3 514.2 519C542.7 534.7 571.3 572.3 585.7 591.2L600 610L600 901L585.7 901C571.3 901 542.7 901 514.2 901C485.7 901 457.3 901 428.8 901C400.3 901 371.7 901 343 901C314.3 901 285.7 901 257 901C228.3 901 199.7 901 171.2 901C142.7 901 114.3 901 85.8 901C57.3 901 28.7 901 14.3 901L0 901Z" fill="#f0009b"></path><path d="M0 594L14.3 608.2C28.7 622.3 57.3 650.7 85.8 666.7C114.3 682.7 142.7 686.3 171.2 685.3C199.7 684.3 228.3 678.7 257 661.5C285.7 644.3 314.3 615.7 343 620.7C371.7 625.7 400.3 664.3 428.8 670.3C457.3 676.3 485.7 649.7 514.2 647.2C542.7 644.7 571.3 666.3 585.7 677.2L600 688L600 901L585.7 901C571.3 901 542.7 901 514.2 901C485.7 901 457.3 901 428.8 901C400.3 901 371.7 901 343 901C314.3 901 285.7 901 257 901C228.3 901 199.7 901 171.2 901C142.7 901 114.3 901 85.8 901C57.3 901 28.7 901 14.3 901L0 901Z" fill="#d900b9"></path><path d="M0 721L14.3 718.3C28.7 715.7 57.3 710.3 85.8 713C114.3 715.7 142.7 726.3 171.2 735.3C199.7 744.3 228.3 751.7 257 756C285.7 760.3 314.3 761.7 343 765.8C371.7 770 400.3 777 428.8 769.3C457.3 761.7 485.7 739.3 514.2 722.7C542.7 706 571.3 695 585.7 689.5L600 684L600 901L585.7 901C571.3 901 542.7 901 514.2 901C485.7 901 457.3 901 428.8 901C400.3 901 371.7 901 343 901C314.3 901 285.7 901 257 901C228.3 901 199.7 901 171.2 901C142.7 901 114.3 901 85.8 901C57.3 901 28.7 901 14.3 901L0 901Z" fill="#ae00dc"></path><path d="M0 840L14.3 828.8C28.7 817.7 57.3 795.3 85.8 789.2C114.3 783 142.7 793 171.2 794.2C199.7 795.3 228.3 787.7 257 792.8C285.7 798 314.3 816 343 816.2C371.7 816.3 400.3 798.7 428.8 796.8C457.3 795 485.7 809 514.2 810C542.7 811 571.3 799 585.7 793L600 787L600 901L585.7 901C571.3 901 542.7 901 514.2 901C485.7 901 457.3 901 428.8 901C400.3 901 371.7 901 343 901C314.3 901 285.7 901 257 901C228.3 901 199.7 901 171.2 901C142.7 901 114.3 901 85.8 901C57.3 901 28.7 901 14.3 901L0 901Z" fill="#540aff"></path></svg>